<svg id="visual" viewBox="0 0 2000 1850" width="2000" height="1850" xmlns="http://www.w3.org/2000/svg" xmlns:xlink="http://www.w3.org/1999/xlink" version="1.1"><rect width="2000" height="1850" fill="#F7CACA"></rect><g><g transform="translate(819 1501)"><path d="M188.7 6.5C188.7 115.1 94.3 230.1 3 230.1C-88.3 230.1 -176.6 115.1 -176.6 6.5C-176.6 -102 -88.3 -204 3 -204C94.3 -204 188.7 -102 188.7 6.5Z" fill="none" stroke="#7542ab" stroke-width="23"></path></g><g transform="translate(341 982)"><path d="M171.6 -0.5C171.6 85 85.8 170 0.5 170C-84.7 170 -169.4 85 -169.4 -0.5C-169.4 -86.1 -84.7 -172.2 0.5 -172.2C85.8 -172.2 171.6 -86.1 171.6 -0.5Z" fill="none" stroke="#7542ab" stroke-width="23"></path></g><g transform="translate(1650 1154)"><path d="M158.5 -1.8C158.5 69.2 79.2 138.4 7.3 138.4C-64.7 138.4 -129.4 69.2 -129.4 -1.8C-129.4 -72.9 -64.7 -145.8 7.3 -145.8C79.2 -145.8 158.5 -72.9 158.5 -1.8Z" stroke="#7542ab" fill="none" stroke-width="23"></path></g><g transform="translate(1258 266)"><path d="M163.4 -5.6C163.4 89 81.7 178 -6.1 178C-94 178 -188 89 -188 -5.6C-188 -100.3 -94 -200.6 -6.1 -200.6C81.7 -200.6 163.4 -100.3 163.4 -5.6Z" stroke="#7542ab" fill="none" stroke-width="23"></path></g></g></svg>