<svg id="visual" viewBox="0 0 2000 1850" width="2000" height="1850" xmlns="http://www.w3.org/2000/svg" xmlns:xlink="http://www.w3.org/1999/xlink" version="1.1"><rect width="2000" height="1850" fill="#F7CACA"></rect><g><g transform="translate(1938 1643)"><path d="M227 -3.9C227 94.9 113.5 189.7 10.5 189.7C-92.5 189.7 -185.1 94.9 -185.1 -3.9C-185.1 -102.7 -92.5 -205.4 10.5 -205.4C113.5 -205.4 227 -102.7 227 -3.9Z" stroke="#7542ab" fill="none" stroke-width="23"></path></g><g transform="translate(627 1533)"><path d="M167.6 -2.4C167.6 71.8 83.8 143.7 1.4 143.7C-80.9 143.7 -161.9 71.8 -161.9 -2.4C-161.9 -76.6 -80.9 -153.2 1.4 -153.2C83.8 -153.2 167.6 -76.6 167.6 -2.4Z" stroke="#7542ab" fill="none" stroke-width="23"></path></g><g transform="translate(1183 612)"><path d="M183.7 8.1C183.7 106.7 91.8 213.3 -3.1 213.3C-98.1 213.3 -196.2 106.7 -196.2 8.1C-196.2 -90.4 -98.1 -180.8 -3.1 -180.8C91.8 -180.8 183.7 -90.4 183.7 8.1Z" stroke="#7542ab" fill="none" stroke-width="23"></path></g><g transform="translate(52 344)"><path d="M186.8 -4.8C186.8 80.5 93.4 161.1 7.9 161.1C-77.5 161.1 -155.1 80.5 -155.1 -4.8C-155.1 -90.1 -77.5 -180.1 7.9 -180.1C93.4 -180.1 186.8 -90.1 186.8 -4.8Z" stroke="#7542ab" fill="none" stroke-width="23"></path></g></g></svg>