<svg id="visual" viewBox="0 0 900 600" width="900" height="600" xmlns="http://www.w3.org/2000/svg" xmlns:xlink="http://www.w3.org/1999/xlink" version="1.1"><rect x="0" y="0" width="900" height="600" fill="#F7CACA"></rect><path d="M0 453L21.5 443.7C43 434.3 86 415.7 128.8 423.8C171.7 432 214.3 467 257.2 484.8C300 502.7 343 503.3 385.8 491.3C428.7 479.3 471.3 454.7 514.2 445C557 435.3 600 440.7 642.8 455.3C685.7 470 728.3 494 771.2 503.8C814 513.7 857 509.3 878.5 507.2L900 505L900 601L878.5 601C857 601 814 601 771.2 601C728.3 601 685.7 601 642.8 601C600 601 557 601 514.2 601C471.3 601 428.7 601 385.8 601C343 601 300 601 257.2 601C214.3 601 171.7 601 128.8 601C86 601 43 601 21.5 601L0 601Z" fill="none"  stroke-linecap="round" stroke-linejoin="miter"></path></svg>