<svg id="visual" viewBox="0 0 900 600" width="900" height="600" xmlns="http://www.w3.org/2000/svg" xmlns:xlink="http://www.w3.org/1999/xlink" version="1.1"><rect x="0" y="0" width="900" height="600" fill="#f1e0ff"></rect><path d="M0 197L21.5 202C43 207 86 217 128.8 214.2C171.7 211.3 214.3 195.7 257.2 183.8C300 172 343 164 385.8 166.8C428.7 169.7 471.3 183.3 514.2 182.3C557 181.3 600 165.7 642.8 160.3C685.7 155 728.3 160 771.2 172.3C814 184.7 857 204.3 878.5 214.2L900 224L900 0L878.5 0C857 0 814 0 771.2 0C728.3 0 685.7 0 642.8 0C600 0 557 0 514.2 0C471.3 0 428.7 0 385.8 0C343 0 300 0 257.2 0C214.3 0 171.7 0 128.8 0C86 0 43 0 21.5 0L0 0Z" fill="#715df2"></path><path d="M0 205L21.5 202.2C43 199.3 86 193.7 128.8 183.8C171.7 174 214.3 160 257.2 156.3C300 152.7 343 159.3 385.8 169C428.7 178.7 471.3 191.3 514.2 194C557 196.7 600 189.3 642.8 181.2C685.7 173 728.3 164 771.2 154.2C814 144.3 857 133.7 878.5 128.3L900 123L900 0L878.5 0C857 0 814 0 771.2 0C728.3 0 685.7 0 642.8 0C600 0 557 0 514.2 0C471.3 0 428.7 0 385.8 0C343 0 300 0 257.2 0C214.3 0 171.7 0 128.8 0C86 0 43 0 21.5 0L0 0Z" fill="#c466d7"></path><path d="M0 103L21.5 111.7C43 120.3 86 137.7 128.8 135.7C171.7 133.7 214.3 112.3 257.2 103.5C300 94.7 343 98.3 385.8 107.8C428.7 117.3 471.3 132.7 514.2 141.3C557 150 600 152 642.8 148.5C685.7 145 728.3 136 771.2 136.8C814 137.7 857 148.3 878.5 153.7L900 159L900 0L878.5 0C857 0 814 0 771.2 0C728.3 0 685.7 0 642.8 0C600 0 557 0 514.2 0C471.3 0 428.7 0 385.8 0C343 0 300 0 257.2 0C214.3 0 171.7 0 128.8 0C86 0 43 0 21.5 0L0 0Z" fill="#ea80c2"></path><path d="M0 112L21.5 109.5C43 107 86 102 128.8 99.2C171.7 96.3 214.3 95.7 257.2 94C300 92.3 343 89.7 385.8 93C428.7 96.3 471.3 105.7 514.2 108.8C557 112 600 109 642.8 102.2C685.7 95.3 728.3 84.7 771.2 78.2C814 71.7 857 69.3 878.5 68.2L900 67L900 0L878.5 0C857 0 814 0 771.2 0C728.3 0 685.7 0 642.8 0C600 0 557 0 514.2 0C471.3 0 428.7 0 385.8 0C343 0 300 0 257.2 0C214.3 0 171.7 0 128.8 0C86 0 43 0 21.5 0L0 0Z" fill="#f8a4bc"></path><path d="M0 38L21.5 39.5C43 41 86 44 128.8 49.2C171.7 54.3 214.3 61.7 257.2 58C300 54.3 343 39.7 385.8 33.2C428.7 26.7 471.3 28.3 514.2 33.3C557 38.3 600 46.7 642.8 48.8C685.7 51 728.3 47 771.2 49.7C814 52.3 857 61.7 878.5 66.3L900 71L900 0L878.5 0C857 0 814 0 771.2 0C728.3 0 685.7 0 642.8 0C600 0 557 0 514.2 0C471.3 0 428.7 0 385.8 0C343 0 300 0 257.2 0C214.3 0 171.7 0 128.8 0C86 0 43 0 21.5 0L0 0Z" fill="#f7caca"></path></svg>