<svg id="visual" viewBox="0 0 1000 600" width="900" height="600" xmlns="http://www.w3.org/2000/svg" xmlns:xlink="http://www.w3.org/1999/xlink" version="1.1"><rect x="0" y="0" width="1000" height="600" fill="#f7caca"></rect><path d="M383 0L388 12.5C393 25 403 50 400 75C397 100 381 125 344 150C307 175 249 200 230 225C211 250 231 275 259 300C287 325 323 350 313.5 375C304 400 249 425 237.2 450C225.3 475 256.7 500 262.3 525C268 550 248 575 238 587.5L228 600L0 600L0 587.5C0 575 0 550 0 525C0 500 0 475 0 450C0 425 0 400 0 375C0 350 0 325 0 300C0 275 0 250 0 225C0 200 0 175 0 150C0 125 0 100 0 75C0 50 0 25 0 12.5L0 0Z" fill="#d278b7" stroke-linecap="round" stroke-linejoin="miter"></path></svg>