<svg id="visual" viewBox="0 0 2000 1080" width="2000" height="1080" xmlns="http://www.w3.org/2000/svg" xmlns:xlink="http://www.w3.org/1999/xlink" version="1.1"><rect x="0" y="0" width="2000" height="1080" fill="#e8e4ff"></rect><path d="M0 891L25.7 878.8C51.3 866.7 102.7 842.3 154 830.8C205.3 819.3 256.7 820.7 308 830C359.3 839.3 410.7 856.7 461.8 871.8C513 887 564 900 615.2 907.7C666.3 915.3 717.7 917.7 769 904.5C820.3 891.3 871.7 862.7 923 845C974.3 827.3 1025.7 820.7 1077 825.5C1128.3 830.3 1179.7 846.7 1231 861C1282.3 875.3 1333.7 887.7 1384.8 877.3C1436 867 1487 834 1538.2 830.3C1589.3 826.7 1640.7 852.3 1692 866.2C1743.3 880 1794.7 882 1846 871.2C1897.3 860.3 1948.7 836.7 1974.3 824.8L2000 813L2000 1081L1974.3 1081C1948.7 1081 1897.3 1081 1846 1081C1794.7 1081 1743.3 1081 1692 1081C1640.7 1081 1589.3 1081 1538.2 1081C1487 1081 1436 1081 1384.8 1081C1333.7 1081 1282.3 1081 1231 1081C1179.7 1081 1128.3 1081 1077 1081C1025.7 1081 974.3 1081 923 1081C871.7 1081 820.3 1081 769 1081C717.7 1081 666.3 1081 615.2 1081C564 1081 513 1081 461.8 1081C410.7 1081 359.3 1081 308 1081C256.7 1081 205.3 1081 154 1081C102.7 1081 51.3 1081 25.7 1081L0 1081Z" fill="#9383fb" stroke-linecap="round" stroke-linejoin="miter"></path></svg>